PathFileType	4	(x/y/z)	S10_M20_T58
DataRate	CameraRate	NumFrames	NumMarkers	Units	OrigDataRate	OrigDataStartFrame	OrigNumFrames
240	240	7	51	mm	240	135	538
Frame#	Time	Sternum			R.Acromium			L.Acromium			Top.Head			R.ASIS			L.ASIS			R.PSIS			L.PSIS			R.Great.Tro			L.Great.Tro			R.Iliac.Crest			L.Iliac.Crest			V.Sacral			R.Thigh.Upper.Post			R.Thigh.Lower.Ant			R.Thigh.Lower.Post			R.Thigh.Upper.Ant			R.Knee.Lat			R.Knee.Med			R.Shank.Upper.Post			R.Shank.Lower.Ant			R.Shank.Lower.Post			R.Shank.Upper.Ant			R.Ankle.Lat			R.Ankle.Med			R.Heel.Upper			R.Heel.Med			R.Heel.Lat			R.Toe.Lat			R.Toe.Med			R.Toe.Tip			L.Thigh.Upper.Post			L.Thigh.Lower.Ant			L.Thigh.Lower.Post			L.Thigh.Upper.Ant			L.Knee.Lat			L.Knee.Med			L.Shank.Upper.Post			L.Shank.Lower.Ant			L.Shank.Lower.Post			L.Shank.Upper.Ant			L.Ankle.Lat			L.Ankle.Med			L.Heel.Upper			L.Heel.Med			L.Heel.Lat			L.Toe.Lat			L.Toe.Med			L.Toe.Tip			Cervical.Spine			Back			
		X1	Y1	Z1	X2	Y2	Z2	X3	Y3	Z3	X4	Y4	Z4	X5	Y5	Z5	X6	Y6	Z6	X7	Y7	Z7	X8	Y8	Z8	X9	Y9	Z9	X10	Y10	Z10	X11	Y11	Z11	X12	Y12	Z12	X13	Y13	Z13	X14	Y14	Z14	X15	Y15	Z15	X16	Y16	Z16	X17	Y17	Z17	X18	Y18	Z18	X19	Y19	Z19	X20	Y20	Z20	X21	Y21	Z21	X22	Y22	Z22	X23	Y23	Z23	X24	Y24	Z24	X25	Y25	Z25	X26	Y26	Z26	X27	Y27	Z27	X28	Y28	Z28	X29	Y29	Z29	X30	Y30	Z30	X31	Y31	Z31	X32	Y32	Z32	X33	Y33	Z33	X34	Y34	Z34	X35	Y35	Z35	X36	Y36	Z36	X37	Y37	Z37	X38	Y38	Z38	X39	Y39	Z39	X40	Y40	Z40	X41	Y41	Z41	X42	Y42	Z42	X43	Y43	Z43	X44	Y44	Z44	X45	Y45	Z45	X46	Y46	Z46	X47	Y47	Z47	X48	Y48	Z48	X49	Y49	Z49	X50	Y50	Z50	X51	Y51	Z51	

135	0.55833	-91.528	1263.9	290.62	-236.86	1413.3	434.92	-192.29	1446.6	133.53	-235.81	1733.4	308.65	-141.27	989.78	377.51	-154.08	1006.7	151.04	-346.14	1012.6	304.94	-348.41	1024.1	224.09	-203.24	912.64	454.53	-230.38	948.75	94.88	-233.92	1071.2	429.89	-216.72	1085.7	130.7	-368.82	984.92	267.91	-112.04	721.17	462.11	-28.51	676.72	424.3	-77.174	639.17	455.71	-62.944	760.85	424.76	-19.228	526.88	417.67	-21.611	523	289.34	-3.3372	297.05	430.06	81.606	263.31	423.18	26.403	228.01	427.24	56.494	336.27	423.91	90.637	129.99	417.64	100.68	143.54	339.44	58.924	60.459	366.17	80.931	40.316	340.91	71.409	40.379	401.44	227.72	101.61	459.11	256.29	119.52	353.64	297.87	160.32	397.89	-337.27	693.49	109.53	-288.66	596.11	133.29	-362.45	603.91	133.17	-260.19	679.73	109.6	-354.45	508.68	144.07	-339.58	506.33	271.06	-465.89	311.96	160.6	-418.99	213.02	180.47	-479.01	236.61	176.49	-405.71	287.33	164.4	-474.26	109.26	196.65	-456.77	127.12	283.58	-548.35	82.608	246.44	-536.7	49.605	279	-543.32	52.3	214.81	-367.94	38.861	172.05	-338.18	42.757	280.81	-282.74	50.968	230.92	-292.11	1479.9	283.11	-377.23	1271.3	258.54
136	0.5625	-86.248	1262.7	291.21	-231.76	1412.2	435.43	-186.85	1445.5	134.13	-230.81	1732.2	309.25	-135.94	988.58	377.54	-149.11	1005.6	151.13	-340.88	1011.5	305.25	-343.35	1023.1	224.4	-197.88	911.4	454.66	-225.65	947.8	94.966	-228.57	1070	430.1	-211.66	1084.7	130.95	-363.67	983.91	268.24	-107.65	719.32	462.18	-24.328	674.5	424.48	-73.257	637.15	455.72	-58.352	758.83	425.02	-15.019	525.3	417.51	-17.566	521.06	289.09	5.6027	295.88	429.94	91.273	263.98	423.03	36.826	227.45	427.03	64.583	336.38	423.78	103.31	130.73	417.43	113.1	144.59	339.27	73.139	60.513	365.95	95.631	40.885	340.66	86.129	40.654	401.2	241.19	105.34	458.98	269.25	124.01	353.48	309.95	165.68	397.8	-333.98	693.37	109.51	-285.94	595.7	133.14	-359.71	603.95	133.15	-257	679.11	109.48	-352.31	508.62	143.95	-337.27	506.14	270.96	-464.69	312.39	160.6	-418.24	213.23	180.37	-478.14	237.08	176.53	-404.63	287.47	164.32	-473.93	109.61	196.7	-456.28	127.45	283.57	-548.08	83.162	246.48	-536.52	50.145	279.03	-543.19	52.796	214.84	-367.9	38.804	172.02	-338.05	42.721	280.75	-282.64	50.772	230.88	-286.79	1478.7	283.52	-371.97	1270.2	258.82
137	0.56667	-80.947	1261.5	291.79	-226.62	1411	435.95	-181.4	1444.3	134.73	-225.81	1731	309.86	-130.58	987.37	377.57	-144.12	1004.5	151.21	-335.61	1010.4	305.56	-338.26	1022	224.72	-192.46	910.16	454.79	-220.91	946.85	95.061	-223.2	1068.8	430.31	-206.61	1083.6	131.2	-358.5	982.88	268.59	-103.15	717.51	462.25	-20.062	672.29	424.62	-69.238	635.17	455.75	-53.667	756.83	425.24	-10.769	523.73	417.38	-13.544	519.13	288.86	14.399	294.76	429.8	100.73	264.65	422.83	47.037	226.96	426.81	72.537	336.5	423.63	115.63	131.53	417.16	125.19	145.71	339.04	86.973	60.691	365.65	109.92	41.581	340.31	100.44	41.038	400.86	254.23	109	458.78	281.78	128.46	353.26	321.63	170.91	397.69	-330.66	693.25	109.51	-283.17	595.3	133	-356.92	603.99	133.15	-253.77	678.5	109.38	-350.12	508.57	143.85	-334.88	505.95	270.85	-463.45	312.84	160.61	-417.46	213.46	180.28	-477.23	237.58	176.58	-403.51	287.62	164.24	-473.6	109.98	196.75	-455.78	127.81	283.54	-547.8	83.759	246.5	-536.35	50.732	279.05	-543.04	53.326	214.86	-367.86	38.743	171.98	-337.91	42.695	280.69	-282.53	50.572	230.84	-281.44	1477.6	283.94	-366.7	1269.1	259.12
138	0.57083	-75.626	1260.3	292.36	-221.44	1409.9	436.48	-175.93	1443.2	135.33	-220.79	1729.8	310.47	-125.2	986.17	377.6	-139.1	1003.4	151.28	-330.32	1009.3	305.9	-333.13	1021	225.06	-186.99	908.92	454.92	-216.15	945.89	95.167	-217.8	1067.6	430.54	-201.54	1082.6	131.46	-353.31	981.84	268.95	-98.525	715.75	462.33	-15.7	670.11	424.73	-65.101	633.23	455.79	-48.88	754.86	425.42	-6.4651	522.2	417.27	-9.5338	517.23	288.67	23.042	293.7	429.63	109.98	265.32	422.61	57.024	226.53	426.56	80.353	336.62	423.46	127.6	132.36	416.84	136.93	146.88	338.75	100.4	60.969	365.26	123.78	42.379	339.88	114.33	41.507	400.44	266.85	112.55	458.51	293.89	132.83	352.98	332.9	176	397.55	-327.28	693.13	109.53	-280.35	594.9	132.86	-354.08	604.04	133.16	-250.5	677.89	109.27	-347.86	508.53	143.75	-332.39	505.75	270.76	-462.16	313.31	160.62	-416.65	213.7	180.17	-476.29	238.1	176.62	-402.35	287.79	164.15	-473.25	110.38	196.79	-455.26	128.18	283.5	-547.49	84.4	246.5	-536.16	51.365	279.06	-542.89	53.889	214.87	-367.81	38.679	171.94	-337.77	42.679	280.62	-282.43	50.37	230.79	-276.05	1476.5	284.39	-361.41	1267.9	259.45
139	0.575	-70.283	1259	292.93	-216.21	1408.7	437.02	-170.44	1442.1	135.93	-215.76	1728.5	311.09	-119.8	984.96	377.63	-134.07	1002.3	151.36	-325.01	1008.2	306.25	-327.97	1019.9	225.42	-181.45	907.68	455.06	-211.38	944.93	95.285	-212.37	1066.4	430.77	-196.48	1081.5	131.72	-348.11	980.78	269.32	-93.763	714.05	462.41	-11.231	667.97	424.8	-60.832	631.35	455.86	-43.988	752.92	425.56	-2.0943	520.69	417.2	-5.5233	515.38	288.51	31.525	292.69	429.44	119.01	265.98	422.35	66.773	226.16	426.29	88.029	336.72	423.28	139.19	133.2	416.47	148.31	148.07	338.42	113.4	61.323	364.8	137.18	43.25	339.36	127.77	42.033	399.93	279.02	115.97	458.18	305.55	137.08	352.65	343.76	180.9	397.37	-323.86	693.01	109.58	-277.48	594.52	132.73	-351.18	604.1	133.19	-247.19	677.28	109.17	-345.54	508.49	143.67	-329.82	505.55	270.68	-460.82	313.8	160.64	-415.81	213.96	180.06	-475.31	238.65	176.66	-401.15	287.97	164.07	-472.88	110.81	196.81	-454.71	128.57	283.44	-547.17	85.083	246.49	-535.97	52.046	279.06	-542.72	54.487	214.87	-367.76	38.611	171.89	-337.63	42.673	280.55	-282.32	50.163	230.74	-270.64	1475.4	284.84	-356.1	1266.8	259.8
140	0.57917	-64.918	1257.7	293.48	-210.94	1407.5	437.57	-164.94	1440.9	136.53	-210.72	1727.3	311.72	-114.38	983.76	377.67	-129.02	1001.2	151.44	-319.69	1007	306.62	-322.77	1018.8	225.79	-175.87	906.45	455.22	-206.58	943.97	95.417	-206.92	1065.1	431.01	-191.4	1080.5	131.99	-342.89	979.72	269.71	-88.862	712.4	462.5	-6.6464	665.89	424.83	-56.418	629.53	455.92	-38.985	751.05	425.64	2.3561	519.22	417.14	-1.4998	513.57	288.39	39.839	291.72	429.21	127.82	266.62	422.06	76.272	225.83	426.01	95.564	336.81	423.08	150.39	134.04	416.04	159.31	149.25	338.05	125.95	61.726	364.28	150.1	44.167	338.77	140.73	42.59	399.35	290.74	119.22	457.79	316.77	141.18	352.26	354.2	185.57	397.16	-320.39	692.9	109.64	-274.55	594.13	132.59	-348.22	604.16	133.24	-243.82	676.68	109.08	-343.14	508.47	143.6	-327.15	505.33	270.6	-459.42	314.32	160.66	-414.93	214.24	179.95	-474.29	239.23	176.7	-399.89	288.17	163.99	-472.5	111.26	196.83	-454.15	128.99	283.37	-546.83	85.809	246.45	-535.77	52.776	279.05	-542.55	55.121	214.85	-367.71	38.539	171.84	-337.49	42.677	280.48	-282.21	49.954	230.69	-265.2	1474.3	285.32	-350.77	1265.7	260.17
141	0.58333	-59.53	1256.4	294.01	-205.62	1406.2	438.12	-159.41	1439.8	137.13	-205.66	1726.1	312.36	-108.94	982.56	377.72	-123.95	1000.1	151.53	-314.35	1005.9	307.01	-317.53	1017.7	226.18	-170.22	905.22	455.38	-201.77	943.01	95.564	-201.45	1063.9	431.26	-186.32	1079.4	132.27	-337.65	978.66	270.12	-83.816	710.83	462.58	-1.9369	663.87	424.81	-51.848	627.79	455.99	-33.867	749.23	425.67	6.8986	517.81	417.1	2.551	511.83	288.29	47.976	290.8	428.96	136.39	267.21	421.75	85.508	225.53	425.71	102.96	336.86	422.87	161.19	134.85	415.58	169.92	150.41	337.63	138.02	62.153	363.71	162.51	45.097	338.11	153.19	43.153	398.71	302.01	122.28	457.33	327.53	145.1	351.81	364.23	189.99	396.91	-316.87	692.79	109.74	-271.56	593.76	132.46	-345.2	604.22	133.31	-240.41	676.08	108.99	-340.68	508.44	143.54	-324.39	505.09	270.54	-457.97	314.86	160.68	-414.01	214.54	179.83	-473.23	239.84	176.73	-398.59	288.38	163.91	-472.09	111.74	196.83	-453.56	129.43	283.28	-546.46	86.578	246.4	-535.56	53.555	279.02	-542.37	55.792	214.82	-367.66	38.464	171.79	-337.35	42.689	280.4	-282.09	49.742	230.64	-259.72	1473.2	285.81	-345.43	1264.6	260.57
